<svg viewBox="0 -960 960 960" fill="#e3e3e3" xmlns="http://www.w3.org/2000/svg">
	<path d="M 373.33334,-320 435.55555,-383.33334 338.88889,-480 435.55555,-576.66666 373.33334,-640 l -160,160 z m 213.33332,0 160,-160 -160,-160 -62.22221,63.33334 96.66666,96.66666 -96.66666,96.66666 z M 168.88889,-80 q -36.66667,0 -62.77778,-26.11111 Q 80,-132.22222 80,-168.88889 v -622.22222 q 0,-36.66667 26.11111,-62.77778 Q 132.22222,-880 168.88889,-880 h 622.22222 q 36.66667,0 62.77778,26.11111 Q 880,-827.77778 880,-791.11111 v 622.22222 q 0,36.66667 -26.11111,62.77778 Q 827.77778,-80 791.11111,-80 Z"
     	id="path1"
     	style="fill:#665fb3;fill-opacity:1;stroke-width:1.11111" />
</svg>
